<svg class="w-8 h-8" width="48" viewBox="10 0 300 220" fill="#2aa6da" xmlns="http://www.w3.org/2000/svg"><path d="M161.895 176.627l6.341 21.915 60.266-106.813-56.348 120.357L178.495 234l-16.6-13.544-16.6 13.544 6.341-21.914L6.833 148.328l148.721 50.214 6.341-21.915z" fill="url(#paint0_linear)"/><g filter="url(#filter0_d)"><path d="M156.034 6.037l33.614 73.89.667 1.465H297.822l-84.868 44.039-2.107 1.093.983 2.161 32.893 72.304-87.538-45.424-1.151-.598-1.152.598-87.538 45.424 32.894-72.304.983-2.161-2.108-1.093-84.867-44.04h107.507l.666-1.464 33.615-73.89z" stroke="orange" stroke-width="5"/><path d="M107.66 116.24c1.092-2.461 2.054-4.402 2.886-5.824a51.245 51.245 0 014.498-6.448c-1.335-.19-2.418-.286-3.25-.286l1.118-3.094c2.08.087 4.082.295 6.006.624 1.924.312 3.805.867 5.642 1.664l1.534 3.484c-.832 3.519-2.678 6.431-5.538 8.736-2.635 2.115-5.824 3.519-9.568 4.212l-3.328-3.068zm4.576-.806a15.65 15.65 0 006.266-3.484c1.924-1.733 3.189-3.752 3.796-6.058-1.855-.78-4.021-1.378-6.5-1.794l2.288 1.872c-2.427 3.068-4.377 6.223-5.85 9.464zm18.158-.442c1.803.382 4.108.711 6.916.988l-1.118 3.614c-2.375-.208-4.082-.407-5.122-.598-1.023-.19-1.829-.346-2.418-.468l-3.12-2.834c2.115-4.402 5.226-9.394 9.334-14.976l2.678 2.704c-2.271 3.12-4.654 6.977-7.15 11.57zm9.77 1.378c2.236-3.05 4.732-5.754 7.488-8.112.936-.797 1.941-1.629 3.016-2.496a55.708 55.708 0 00-8.06-.884l1.664-3.536c2.912.104 5.356.373 7.332.806.78.156 1.577.338 2.392.546l1.534 3.224c-3.744 2.982-6.942 6.171-9.594 9.568a104.73 104.73 0 00-2.886 3.9l-2.886-3.016zm13.408-.26c.746-3.189 2.297-6.196 4.654-9.022 2.462-2.946 5.365-5.122 8.71-6.526l4.732 3.458c-.364 1.266-.979 2.635-1.846 4.108l-3.198-1.768c.295-.589.59-1.369.884-2.34-3.605 1.855-6.266 4.394-7.982 7.618a14.108 14.108 0 00-1.274 3.354c2.115-.312 3.918-.693 5.408-1.144.382-.762.815-1.698 1.3-2.808l3.484 1.794c-1.837 3.606-4.125 7.159-6.864 10.66l-2.782-2.522c1.266-1.612 2.132-2.764 2.6-3.458-1.681.555-3.38.936-5.096 1.144l-2.73-2.548zm29.25-4.706a27.81 27.81 0 012.47 1.846l-.52 3.276c-2.357 1.508-5.269 2.444-8.736 2.808-.988.104-1.924.156-2.808.156l-2.938-2.652c2.219-4.905 4.845-9.195 7.878-12.87-1.334-.19-2.392-.286-3.172-.286l1.118-3.094c2.08.087 4.082.295 6.006.624 1.924.312 3.805.867 5.642 1.664l1.976 4.394c-1.854 1.942-4.16 3.32-6.916 4.134zm-4.29-1.794c1.734-.416 3.034-.832 3.9-1.248 1.387-.641 2.54-1.369 3.458-2.184-1.82-.918-4.16-1.612-7.02-2.08l2.314 1.872c-1.282 1.664-2.166 2.878-2.652 3.64zm-3.692 6.344c2.774-.104 5.07-.65 6.89-1.638-.606-.693-1.69-1.404-3.25-2.132l-1.248-.546a50.465 50.465 0 00-2.392 4.316zm13.173.676c.988-2.374 2.418-5.191 4.29-8.45 1.682-2.946 3.398-5.564 5.148-7.852l2.574 2.522c.035 2.895.191 5.937.468 9.126 1.855-3.9 3.944-7.444 6.266-10.634l2.652 2.444c-2.842 3.97-5.555 9.005-8.138 15.106l-3.458.702c-.554-4.09-.918-7.99-1.092-11.7-2.322 3.9-4.22 7.731-5.694 11.492l-3.016-2.756z" fill="orange"/><path d="M156.567 63.283l1.074 3.728.105.361h4.009l-2.989 2.447-.255.21.092.316 1.11 3.852-2.83-2.317-.316-.26-.317.26-2.83 2.317 1.11-3.852.092-.317-.255-.209-2.989-2.447h4.009l.105-.361 1.075-3.728z" stroke="orange"/></g><path d="M104.346 160.557l.606 1.707.118.332h2.183l-1.441.959-.325.216.13.368.575 1.619-1.569-1.044-.277-.184-.277.184-1.568 1.044.574-1.619.131-.368-.325-.216-1.441-.959h2.183l.118-.332.605-1.707z" fill="#C4C4C4" stroke="orange"/><defs><linearGradient id="paint0_linear" x1="161.895" y1="176.627" x2="161.895" y2="240.057" gradientUnits="userSpaceOnUse"><stop stop-color="orange"/><stop offset="1" stop-color="#fff" stop-opacity="0"/></linearGradient><filter id="filter0_d" x="0" y="0" width="312.067" height="214.542" filterUnits="userSpaceOnUse" color-interpolation-filters="sRGB"><feFlood flood-opacity="0" result="BackgroundImageFix"/><feColorMatrix in="SourceAlpha" values="0 0 0 0 0 0 0 0 0 0 0 0 0 0 0 0 0 0 127 0"/><feOffset dy="4"/><feGaussianBlur stdDeviation="2"/><feColorMatrix values="0 0 0 0 0 0 0 0 0 0 0 0 0 0 0 0 0 0 0.25 0"/><feBlend in2="BackgroundImageFix" result="effect1_dropShadow"/><feBlend in="SourceGraphic" in2="effect1_dropShadow" result="shape"/></filter></defs></svg>